<svg xmlns="http://www.w3.org/2000/svg" viewBox="0 0 240 150"><g transform="translate(0,4)"><ellipse cx="120" cy="112" rx="100" ry="16" fill="#e3dde9"/><circle cx="40" cy="100" r="22" fill="#e3dde9"/><circle cx="82" cy="94" r="26" fill="#e3dde9"/><circle cx="128" cy="92" r="28" fill="#e3dde9"/><circle cx="172" cy="96" r="26" fill="#e3dde9"/><circle cx="206" cy="104" r="18" fill="#e3dde9"/></g><g><ellipse cx="120" cy="112" rx="100" ry="16" fill="#f4f1f6"/><circle cx="40" cy="100" r="22" fill="#f4f1f6"/><circle cx="82" cy="94" r="26" fill="#f4f1f6"/><circle cx="128" cy="92" r="28" fill="#f4f1f6"/><circle cx="172" cy="96" r="26" fill="#f4f1f6"/><circle cx="206" cy="104" r="18" fill="#f4f1f6"/></g><circle cx="40" cy="30" r="13" fill="#f2c15a"/><g stroke="#f2c15a" stroke-width="2.6" stroke-linecap="round"><path d="M40 10v6M40 44v6M20 30h6M54 30h6M26 16l4 4M50 40l4 4M26 44l4-4M50 20l4-4"/></g><path d="M217 26 l3 6 6 3 -6 3 -3 6 -3 -6 -6 -3 6 -3 z" fill="#f2c15a"/><path d="M26 56 l2 4 4 2 -4 2 -2 4 -2 -4 -4 -2 4 -2 z" fill="#f2c15a"/><g stroke="#a67c5b" stroke-width="1.6" stroke-linejoin="round" stroke-linecap="round"><path d="M186 80 C 193 76, 197 70, 197 63 C 201 66, 203 74, 197 80 C 194 83.5, 189 84.5, 186 83 z" fill="#f2e6d7"/><path d="M118 78 C 130 60, 176 58, 186 80 C 192 94, 176 106, 150 106 C 128 106, 112 96, 118 78 z" fill="#f2e6d7"/><ellipse cx="160" cy="76" rx="11" ry="7" fill="#dcb08a" stroke="none"/><ellipse cx="176" cy="98" rx="9" ry="6.5" fill="#fffaf3"/><path d="M60 68 C 58 46, 78 40, 92 42 C 112 43, 124 54, 122 74 C 121 92, 106 100, 90 100 C 72 100, 60 90, 60 68 z" fill="#f8efe4"/><ellipse cx="111" cy="68" rx="9.5" ry="8.5" fill="#dcb08a" stroke="none"/><ellipse cx="93" cy="82" rx="15" ry="10" fill="#fffaf3" stroke="none"/><path d="M89 77 C 90 74, 97 74, 97.5 77 C 97.5 80, 94 82, 93 82 C 92 82, 89 80, 89 77 z" fill="#5c4033" stroke="none"/><path d="M93 83 C 93 87, 90 88, 88 86 M93 83 C 93 87, 96 88, 98 86" fill="none" stroke="#5c4033" stroke-width="1.4"/><circle cx="76" cy="71" r="5.2" fill="#5c4033" stroke="none"/><circle cx="110" cy="69" r="5.2" fill="#5c4033" stroke="none"/><circle cx="77.8" cy="67.2" r="1.7" fill="#ffffff" stroke="none"/><circle cx="111.8" cy="65.2" r="1.7" fill="#ffffff" stroke="none"/><ellipse cx="70" cy="82" rx="6" ry="3.6" fill="#f7b3a3" stroke="none" opacity="0.85"/><ellipse cx="116" cy="80" rx="6" ry="3.6" fill="#f7b3a3" stroke="none" opacity="0.85"/><g transform="rotate(0 64 50)"><path d="M65 48 C 54 47, 49 62, 53 77 C 55 84, 62 84, 64 78 C 66.5 68, 69 57, 65 48 z" fill="#dcb08a"/></g><g transform="rotate(0 118 45)"><path d="M117 44 C 128 44, 133 58, 129 73 C 127 80, 120 80, 118 74 C 115.5 64, 113 53, 117 44 z" fill="#dcb08a"/></g><ellipse cx="112" cy="96" rx="11" ry="7.5" fill="#fffaf3"/><ellipse cx="128" cy="99" rx="10" ry="7" fill="#fffaf3"/><path d="M108 98 l0 -2.5 M112 97 l0 -2.5 M116 98 l0 -2.5 M124 101 l0 -2.5 M128 100 l0 -2.5 M132 101 l0 -2.5" fill="none" stroke="#c9a98b" stroke-width="1.1"/></g></svg>
